<svg xmlns="http://www.w3.org/2000/svg" viewBox="0 0 70 70"><g fill="#000000"><path d="M65 .25a4.75 4.75 0 0 1 0 9.5H5a4.75 4.75 0 0 1 0-9.5zm0 60a4.75 4.75 0 0 1 0 9.5H5a4.75 4.75 0 0 1 0-9.5zM.25 15a4.75 4.75 0 1 0 9.5 0 4.75 4.75 0 1 0-9.5 0m0 10a4.75 4.75 0 1 0 9.5 0 4.75 4.75 0 1 0-9.5 0m0 10a4.75 4.75 0 1 0 9.5 0 4.75 4.75 0 1 0-9.5 0m0 10a4.75 4.75 0 1 0 9.5 0 4.75 4.75 0 1 0-9.5 0m0 10a4.75 4.75 0 1 0 9.5 0 4.75 4.75 0 1 0-9.5 0m60-40a4.75 4.75 0 1 0 9.5 0 4.75 4.75 0 1 0-9.5 0m0 10a4.75 4.75 0 1 0 9.5 0 4.75 4.75 0 1 0-9.5 0m0 10a4.75 4.75 0 1 0 9.5 0 4.75 4.75 0 1 0-9.5 0m0 10a4.75 4.75 0 1 0 9.5 0 4.75 4.75 0 1 0-9.5 0m0 10a4.75 4.75 0 1 0 9.5 0 4.75 4.75 0 1 0-9.5 0" transform="translate(0 0)"></path></g></svg>