<svg xmlns="http://www.w3.org/2000/svg" viewBox="0 0 70 70"><g fill="#000000"><path d="M51.35 1.524c.492-.79 6.847-.604 7.499-.21 1.37.826 1.86 2.142 1.221 7.848-3.043 1.651-8.964 1.435-8.964 1.435s-.727-7.517.244-9.073zm10.017.027c.44-.785 5.975-1.162 6.635-.987 2.006.534 2.58 1.09 1.18 7.149-1.316 2.984-7.71 2.8-7.951 2.28-1.073-2.312-.73-6.894.136-8.442zm-11.309.537c.727.455.296 5.934.022 6.581-.832 1.969-1.477 2.52-7.38.977-2.815-1.38-1.793-8.523-1.232-8.748 2.487-.999 7.157.294 8.59 1.19zM39.709 1.023c.748.342.478 5.807.221 6.485-.781 2.063-1.416 2.701-7.423 2.044-2.885-.948-1.94-7.336-1.382-7.64C33.607.564 38.235.35 39.71 1.023zm-28.528.56c.493-.79 6.848-.604 7.5-.21 1.37.827 1.86 2.142 1.22 7.848-3.043 1.652-8.964 1.435-8.964 1.435s-.726-7.517.244-9.073zm58.891 19.445c.727.455.296 5.933.022 6.58-.833 1.969-1.477 2.521-7.38.978-2.816-1.38-1.793-8.524-1.233-8.749 2.488-.998 7.158.294 8.59 1.19zm-.507-10.684c.748.342.478 5.807.221 6.485-.781 2.063-1.415 2.702-7.422 2.045-2.885-.949-1.942-7.337-1.383-7.64 2.483-1.35 7.11-1.564 8.584-.89zM1.228 1.51c.492-.79 6.848-.604 7.5-.21 1.369.827 1.86 2.143 1.22 7.849C6.905 10.8.984 10.584.984 10.584s-.727-7.517.244-9.074zm29.704 1.684c.6.543-1.496 5.61-1.97 6.172-1.441 1.712-2.263 2.126-7.789-.264-2.44-1.744.761-8.276 1.398-8.397 2.828-.538 7.178 1.42 8.361 2.49zM19.926 69.168c-.493.79-6.848.604-7.5.21-1.37-.826-1.86-2.142-1.22-7.848 3.043-1.651 8.964-1.435 8.964-1.435s.726 7.517-.244 9.073zm-10.315-.621c-.439.785-5.974 1.162-6.634.987-2.006-.534-2.58-1.09-1.181-7.149 1.317-2.984 7.71-2.8 7.952-2.28 1.073 2.312.73 6.894-.137 8.442zm11.606.057c-.727-.455-.296-5.934-.022-6.581.833-1.969 1.478-2.52 7.38-.977 2.816 1.38 1.793 8.523 1.233 8.748-2.488.999-7.158-.294-8.59-1.19zm10.35 1.065c-.748-.342-.478-5.807-.221-6.485.78-2.063 1.415-2.701 7.422-2.044 2.885.948 1.942 7.336 1.383 7.64-2.483 1.348-7.11 1.563-8.584.889zm28.527-.559c-.492.789-6.847.603-7.499.21-1.37-.828-1.86-2.143-1.221-7.85 3.043-1.65 8.964-1.434 8.964-1.434s.727 7.517-.244 9.073zm9.954.072c-.493.79-6.848.604-7.5.21-1.37-.827-1.86-2.143-1.22-7.849 3.043-1.651 8.964-1.435 8.964-1.435s.726 7.517-.244 9.074zm-29.705-1.684c-.6-.543 1.497-5.61 1.97-6.172 1.442-1.712 2.264-2.126 7.79.264 2.44 1.744-.761 8.276-1.398 8.397-2.829.538-7.178-1.42-8.362-2.49zm29.353-9.202c-.44.785-5.975 1.162-6.635.987-2.006-.534-2.58-1.09-1.18-7.149 1.316-2.984 7.71-2.8 7.95-2.28 1.074 2.312.73 6.894-.135 8.442zM60.991 38.82c-.727-.456-.296-5.934-.022-6.582.833-1.968 1.477-2.52 7.38-.977 2.816 1.38 1.793 8.524 1.233 8.749-2.488.998-7.158-.294-8.591-1.19zm.507 10.683c-.748-.342-.479-5.807-.222-6.485.782-2.063 1.416-2.702 7.423-2.045 2.885.949 1.941 7.337 1.382 7.64-2.482 1.35-7.11 1.564-8.583.89zM1.317 58.17c-.727-.454-.296-5.933-.022-6.58.833-1.969 1.477-2.52 7.38-.978 2.816 1.38 1.793 8.524 1.233 8.75-2.488.998-7.158-.295-8.59-1.191zm8.657-47.131c.748.342.478 5.807.221 6.485-.781 2.063-1.416 2.701-7.423 2.044-2.885-.948-1.94-7.336-1.382-7.64 2.482-1.348 7.11-1.563 8.584-.889zm-8.28 9.567c.439-.785 5.974-1.163 6.634-.987 2.006.534 2.58 1.09 1.18 7.148-1.316 2.985-7.71 2.8-7.95 2.28-1.074-2.312-.73-6.894.136-8.441zm8.704 20.367c.727.455.296 5.934.022 6.581-.832 1.968-1.477 2.52-7.38.977-2.816-1.38-1.793-8.524-1.233-8.748 2.488-.999 7.158.294 8.591 1.19zm-.21-10.98c.748.342.479 5.807.222 6.485-.782 2.062-1.416 2.701-7.423 2.044-2.885-.948-1.941-7.336-1.382-7.64 2.482-1.349 7.11-1.563 8.583-.89z" transform="translate(0 0)"></path></g></svg>