<svg xmlns="http://www.w3.org/2000/svg" viewBox="60 150 70 70"><g fill="#000000"><path d="M0 0h10v6.5Q10 10 6.5 10h-3Q0 10 0 6.5z" transform="matrix(0 -1 1 0 60 170)"></path><path d="M0 0h10v6.5Q10 10 6.5 10h-3Q0 10 0 6.5z" transform="matrix(0 1 -1 0 70 180)"></path><path d="M0 0h10v6.5Q10 10 6.5 10h-3Q0 10 0 6.5z" transform="matrix(0 -1 1 0 60 210)"></path><path d="M0 0h10v6.5Q10 10 6.5 10h-3Q0 10 0 6.5z" transform="matrix(0 1 -1 0 90 150)"></path><path d="M0 0h10v10H0z" transform="matrix(1 0 0 1 90 150)"></path><path d="M0 0h10v10H0z" transform="matrix(1 0 0 1 100 150)"></path><path d="M0 0h10v10H0z" transform="matrix(1 0 0 1 110 150)"></path><path d="M0 0h10v10H0z" transform="matrix(1 0 0 1 120 150)"></path><path d="M0 0h10v6.5Q10 10 6.5 10h-3Q0 10 0 6.5z" transform="matrix(1 0 0 1 100 160)"></path><path d="M0 0h10v6.5Q10 10 6.5 10h-3Q0 10 0 6.5z" transform="matrix(1 0 0 1 120 160)"></path><path d="M0 0h10v6.5Q10 10 6.5 10h-3Q0 10 0 6.5z" transform="matrix(-1 0 0 -1 80 180)"></path><path d="M0 0h10v6.5Q10 10 6.5 10h-3Q0 10 0 6.5z" transform="matrix(-1 0 0 -1 100 180)"></path><path d="M0 0h10v10H0z" transform="matrix(1 0 0 1 70 180)"></path><path d="M0 0h10v10H3.5Q0 10 0 6.5z" transform="matrix(1 0 0 1 90 180)"></path><path d="M0 0h10v10H0z" transform="matrix(1 0 0 1 100 180)"></path><path d="M0 0h10v10H0z" transform="matrix(1 0 0 1 110 180)"></path><path d="M0 0h10v6.5Q10 10 6.5 10h-3Q0 10 0 6.5z" transform="matrix(0 -1 1 0 120 190)"></path><path d="M0 0h10v10H3.5Q0 10 0 6.5z" transform="matrix(1 0 0 1 70 190)"></path><path d="M0 0h10v6.5Q10 10 6.5 10h-3Q0 10 0 6.5z" transform="matrix(0 -1 1 0 80 200)"></path><path d="M0 0h10v6.5Q10 10 6.5 10h-3Q0 10 0 6.5z" transform="matrix(1 0 0 1 100 190)"></path><path d="M0 0h10v10H3.5Q0 10 0 6.5z" transform="matrix(0 1 -1 0 120 200)"></path><path d="M0 0h10v10H3.5Q0 10 0 6.5z" transform="matrix(-1 0 0 -1 130 210)"></path><path d="M0 0h10v6.5Q10 10 6.5 10h-3Q0 10 0 6.5z" transform="matrix(-1 0 0 -1 90 220)"></path><path d="M0 0h10v6.5Q10 10 6.5 10h-3Q0 10 0 6.5z" transform="matrix(0 1 -1 0 110 210)"></path><path d="M0 0h10v10H0z" transform="matrix(1 0 0 1 110 210)"></path><path d="M0 0h10v10H0z" transform="matrix(1 0 0 1 120 210)"></path></g></svg>