<svg xmlns="http://www.w3.org/2000/svg" viewBox="60 150 70 70"><g fill="#000000"><path d="M5 .25a1 1 0 0 0 0 9.5 1 1 0 0 0 0-9.5" transform="matrix(1 0 0 1 60 160)"></path><path d="M5 .25a1 1 0 0 0 0 9.5 1 1 0 0 0 0-9.5" transform="matrix(1 0 0 1 60 180)"></path><path d="M5 .25a1 1 0 0 0 0 9.5 1 1 0 0 0 0-9.5" transform="matrix(1 0 0 1 60 200)"></path><path d="M5 .25a1 1 0 0 0 0 9.5 1 1 0 0 0 0-9.5" transform="matrix(1 0 0 1 80 150)"></path><path d="M5 .25a1 1 0 0 0 0 9.5 1 1 0 0 0 0-9.5" transform="matrix(1 0 0 1 90 150)"></path><path d="M.25 0v5a4.75 4.75 0 0 0 9.5 0V0z" transform="matrix(-1 0 0 -1 110 160)"></path><path d="M.25 0v5a4.75 4.75 0 0 0 9.5 0V0z" transform="matrix(1 0 0 1 110 150)"></path><path d="M.25 0h9.5v10H.25z" transform="matrix(1 0 0 1 120 150)"></path><path d="M.25 0v5a4.75 4.75 0 0 0 9.5 0V0z" transform="matrix(1 0 0 1 100 160)"></path><path d="M.25 0v5a4.75 4.75 0 0 0 9.5 0V0z" transform="matrix(1 0 0 1 120 160)"></path><path d="M.25 0v5a4.75 4.75 0 0 0 9.5 0V0z" transform="matrix(-1 0 0 -1 80 180)"></path><path d="M.25 0v5a4.75 4.75 0 0 0 9.5 0V0z" transform="matrix(-1 0 0 -1 100 180)"></path><path d="M.25 0h9.5v10H.25z" transform="matrix(1 0 0 1 70 180)"></path><path d="M.25 0v5a4.75 4.75 0 0 0 9.5 0V0z" transform="matrix(1 0 0 1 90 180)"></path><path d="M.25 0v5a4.75 4.75 0 0 0 9.5 0V0z" transform="matrix(-1 0 0 -1 110 190)"></path><path d="M5 .25a1 1 0 0 0 0 9.5 1 1 0 0 0 0-9.5" transform="matrix(1 0 0 1 110 180)"></path><path d="M5 .25a1 1 0 0 0 0 9.5 1 1 0 0 0 0-9.5" transform="matrix(1 0 0 1 120 180)"></path><path d="M.25 0v5a4.75 4.75 0 0 0 9.5 0V0z" transform="matrix(1 0 0 1 70 190)"></path><path d="M5 .25a1 1 0 0 0 0 9.5 1 1 0 0 0 0-9.5" transform="matrix(1 0 0 1 80 190)"></path><path d="M.25 0v5a4.75 4.75 0 0 0 9.5 0V0z" transform="matrix(1 0 0 1 100 190)"></path><path d="M.25 0v5a4.75 4.75 0 0 0 9.5 0V0z" transform="matrix(-1 0 0 -1 120 210)"></path><path d="M.25 0v5a4.75 4.75 0 0 0 9.5 0V0z" transform="matrix(-1 0 0 -1 130 210)"></path><path d="M.25 0v5a4.75 4.75 0 0 0 9.5 0V0z" transform="matrix(-1 0 0 -1 90 220)"></path><path d="M5 .25a1 1 0 0 0 0 9.5 1 1 0 0 0 0-9.5" transform="matrix(1 0 0 1 100 210)"></path><path d="M.25 0h9.5v10H.25z" transform="matrix(1 0 0 1 110 210)"></path><path d="M.25 0h9.5v10H.25z" transform="matrix(1 0 0 1 120 210)"></path></g></svg>