<svg xmlns="http://www.w3.org/2000/svg" viewBox="60 150 70 70"><g fill="#000000"><path d="M2.812.033c-2.699-.336-5.447 4.373 2.18 8.96C12.865 4.258 9.822-.303 6.898.052 5.758.19 5.221.823 4.967 1.367 4.714.823 4.176.19 2.811.032z" transform="matrix(1 0 0 1 60 160)"></path><path d="M2.812.033c-2.699-.336-5.447 4.373 2.18 8.96C12.865 4.258 9.822-.303 6.898.052 5.758.19 5.221.823 4.967 1.367 4.714.823 4.176.19 2.811.032z" transform="matrix(1 0 0 1 60 180)"></path><path d="M2.812.033c-2.699-.336-5.447 4.373 2.18 8.96C12.865 4.258 9.822-.303 6.898.052 5.758.19 5.221.823 4.967 1.367 4.714.823 4.176.19 2.811.032z" transform="matrix(1 0 0 1 60 200)"></path><path d="M2.812.033c-2.699-.336-5.447 4.373 2.18 8.96C12.865 4.258 9.822-.303 6.898.052 5.758.19 5.221.823 4.967 1.367 4.714.823 4.176.19 2.811.032z" transform="matrix(1 0 0 1 80 150)"></path><path d="M2.812.033c-2.699-.336-5.447 4.373 2.18 8.96C12.865 4.258 9.822-.303 6.898.052 5.758.19 5.221.823 4.967 1.367 4.714.823 4.176.19 2.811.032z" transform="matrix(1 0 0 1 90 150)"></path><path d="M2.812.033c-2.699-.336-5.447 4.373 2.18 8.96C12.865 4.258 9.822-.303 6.898.052 5.758.19 5.221.823 4.967 1.367 4.714.823 4.176.19 2.811.032z" transform="matrix(1 0 0 1 100 150)"></path><path d="M2.812.033c-2.699-.336-5.447 4.373 2.18 8.96C12.865 4.258 9.822-.303 6.898.052 5.758.19 5.221.823 4.967 1.367 4.714.823 4.176.19 2.811.032z" transform="matrix(1 0 0 1 110 150)"></path><path d="M2.812.033c-2.699-.336-5.447 4.373 2.18 8.96C12.865 4.258 9.822-.303 6.898.052 5.758.19 5.221.823 4.967 1.367 4.714.823 4.176.19 2.811.032z" transform="matrix(1 0 0 1 120 150)"></path><path d="M2.812.033c-2.699-.336-5.447 4.373 2.18 8.96C12.865 4.258 9.822-.303 6.898.052 5.758.19 5.221.823 4.967 1.367 4.714.823 4.176.19 2.811.032z" transform="matrix(1 0 0 1 100 160)"></path><path d="M2.812.033c-2.699-.336-5.447 4.373 2.18 8.96C12.865 4.258 9.822-.303 6.898.052 5.758.19 5.221.823 4.967 1.367 4.714.823 4.176.19 2.811.032z" transform="matrix(1 0 0 1 120 160)"></path><path d="M2.812.033c-2.699-.336-5.447 4.373 2.18 8.96C12.865 4.258 9.822-.303 6.898.052 5.758.19 5.221.823 4.967 1.367 4.714.823 4.176.19 2.811.032z" transform="matrix(1 0 0 1 70 170)"></path><path d="M2.812.033c-2.699-.336-5.447 4.373 2.18 8.96C12.865 4.258 9.822-.303 6.898.052 5.758.19 5.221.823 4.967 1.367 4.714.823 4.176.19 2.811.032z" transform="matrix(1 0 0 1 90 170)"></path><path d="M2.812.033c-2.699-.336-5.447 4.373 2.18 8.96C12.865 4.258 9.822-.303 6.898.052 5.758.19 5.221.823 4.967 1.367 4.714.823 4.176.19 2.811.032z" transform="matrix(1 0 0 1 70 180)"></path><path d="M2.812.033c-2.699-.336-5.447 4.373 2.18 8.96C12.865 4.258 9.822-.303 6.898.052 5.758.19 5.221.823 4.967 1.367 4.714.823 4.176.19 2.811.032z" transform="matrix(1 0 0 1 90 180)"></path><path d="M2.812.033c-2.699-.336-5.447 4.373 2.18 8.96C12.865 4.258 9.822-.303 6.898.052 5.758.19 5.221.823 4.967 1.367 4.714.823 4.176.19 2.811.032z" transform="matrix(1 0 0 1 100 180)"></path><path d="M2.812.033c-2.699-.336-5.447 4.373 2.18 8.96C12.865 4.258 9.822-.303 6.898.052 5.758.19 5.221.823 4.967 1.367 4.714.823 4.176.19 2.811.032z" transform="matrix(1 0 0 1 110 180)"></path><path d="M2.812.033c-2.699-.336-5.447 4.373 2.18 8.96C12.865 4.258 9.822-.303 6.898.052 5.758.19 5.221.823 4.967 1.367 4.714.823 4.176.19 2.811.032z" transform="matrix(1 0 0 1 120 180)"></path><path d="M2.812.033c-2.699-.336-5.447 4.373 2.18 8.96C12.865 4.258 9.822-.303 6.898.052 5.758.19 5.221.823 4.967 1.367 4.714.823 4.176.19 2.811.032z" transform="matrix(1 0 0 1 70 190)"></path><path d="M2.812.033c-2.699-.336-5.447 4.373 2.18 8.96C12.865 4.258 9.822-.303 6.898.052 5.758.19 5.221.823 4.967 1.367 4.714.823 4.176.19 2.811.032z" transform="matrix(1 0 0 1 80 190)"></path><path d="M2.812.033c-2.699-.336-5.447 4.373 2.18 8.96C12.865 4.258 9.822-.303 6.898.052 5.758.19 5.221.823 4.967 1.367 4.714.823 4.176.19 2.811.032z" transform="matrix(1 0 0 1 100 190)"></path><path d="M2.812.033c-2.699-.336-5.447 4.373 2.18 8.96C12.865 4.258 9.822-.303 6.898.052 5.758.19 5.221.823 4.967 1.367 4.714.823 4.176.19 2.811.032z" transform="matrix(1 0 0 1 110 200)"></path><path d="M2.812.033c-2.699-.336-5.447 4.373 2.18 8.96C12.865 4.258 9.822-.303 6.898.052 5.758.19 5.221.823 4.967 1.367 4.714.823 4.176.19 2.811.032z" transform="matrix(1 0 0 1 120 200)"></path><path d="M2.812.033c-2.699-.336-5.447 4.373 2.18 8.96C12.865 4.258 9.822-.303 6.898.052 5.758.19 5.221.823 4.967 1.367 4.714.823 4.176.19 2.811.032z" transform="matrix(1 0 0 1 80 210)"></path><path d="M2.812.033c-2.699-.336-5.447 4.373 2.18 8.96C12.865 4.258 9.822-.303 6.898.052 5.758.19 5.221.823 4.967 1.367 4.714.823 4.176.19 2.811.032z" transform="matrix(1 0 0 1 100 210)"></path><path d="M2.812.033c-2.699-.336-5.447 4.373 2.18 8.96C12.865 4.258 9.822-.303 6.898.052 5.758.19 5.221.823 4.967 1.367 4.714.823 4.176.19 2.811.032z" transform="matrix(1 0 0 1 110 210)"></path><path d="M2.812.033c-2.699-.336-5.447 4.373 2.18 8.96C12.865 4.258 9.822-.303 6.898.052 5.758.19 5.221.823 4.967 1.367 4.714.823 4.176.19 2.811.032z" transform="matrix(1 0 0 1 120 210)"></path></g></svg>