<svg xmlns="http://www.w3.org/2000/svg" viewBox="60 150 70 70"><g fill="#000000"><path d="M10 0v10H0V4z" transform="matrix(0 1 -1 0 70 160)"></path><path d="M10 0v10H0V4z" transform="matrix(0 -1 1 0 60 190)"></path><path d="M10 0v10H0V4z" transform="matrix(0 1 -1 0 70 200)"></path><path d="M10 0v10H0V4z" transform="matrix(0 -1 1 0 80 160)"></path><path d="M0 0h10v10H0z" transform="matrix(1 0 0 1 90 150)"></path><path d="M0 0h10v10H0z" transform="matrix(1 0 0 1 100 150)"></path><path d="M0 0h10v10H0z" transform="matrix(1 0 0 1 110 150)"></path><path d="M0 0h10v10H0z" transform="matrix(1 0 0 1 120 150)"></path><path d="M10 0v10H0V4z" transform="matrix(-1 0 0 -1 110 170)"></path><path d="M10 0v10H0V4z" transform="matrix(-1 0 0 -1 130 170)"></path><path d="M10 0v10H0V4z" transform="matrix(1 0 0 1 70 170)"></path><path d="M10 0v10H0V4z" transform="matrix(1 0 0 1 90 170)"></path><path d="M0 0h10v10H0z" transform="matrix(1 0 0 1 70 180)"></path><path d="M0 0h10v10H0z" transform="matrix(1 0 0 1 90 180)"></path><path d="M0 0h10v10H0z" transform="matrix(1 0 0 1 100 180)"></path><path d="M0 0h10v10H0z" transform="matrix(1 0 0 1 110 180)"></path><path d="M10 0v10H0V4z" transform="matrix(0 1 -1 0 130 180)"></path><path d="M0 0h10v10H0z" transform="matrix(1 0 0 1 70 190)"></path><path d="M10 0v10H0V4z" transform="matrix(0 1 -1 0 90 190)"></path><path d="M10 0v10H0V4z" transform="matrix(-1 0 0 -1 110 200)"></path><path d="M0 0h10v10H0z" transform="matrix(1 0 0 1 110 200)"></path><path d="M0 0h10v10H0z" transform="matrix(1 0 0 1 120 200)"></path><path d="M10 0v10H0V4z" transform="matrix(1 0 0 1 80 210)"></path><path d="M10 0v10H0V4z" transform="matrix(0 -1 1 0 100 220)"></path><path d="M0 0h10v10H0z" transform="matrix(1 0 0 1 110 210)"></path><path d="M0 0h10v10H0z" transform="matrix(1 0 0 1 120 210)"></path></g></svg>