<svg xmlns="http://www.w3.org/2000/svg" xmlns:xlink="http://www.w3.org/1999/xlink" id="QRCode" viewBox="0 0 100 100" version="1.1"><g transform="translate(12.121 12.121) scale(0.303 0.303)"><rect width="250" height="250" clip-path="url(#main_clip)" fill="teal"></rect></g><defs><path d="M10 0v10H0V4z" id="ms"></path><path d="M0 0h10v10H0z" id="m"></path><path d="M0 0h30v30H0z" id="i"></path><path d="M51.35 1.524c.492-.79 6.847-.604 7.499-.21 1.37.826 1.86 2.142 1.221 7.848-3.043 1.651-8.964 1.435-8.964 1.435s-.727-7.517.244-9.073zm10.017.027c.44-.785 5.975-1.162 6.635-.987 2.006.534 2.58 1.09 1.18 7.149-1.316 2.984-7.71 2.8-7.951 2.28-1.073-2.312-.73-6.894.136-8.442zm-11.309.537c.727.455.296 5.934.022 6.581-.832 1.969-1.477 2.52-7.38.977-2.815-1.38-1.793-8.523-1.232-8.748 2.487-.999 7.157.294 8.59 1.19zM39.709 1.023c.748.342.478 5.807.221 6.485-.781 2.063-1.416 2.701-7.423 2.044-2.885-.948-1.94-7.336-1.382-7.64C33.607.564 38.235.35 39.71 1.023zm-28.528.56c.493-.79 6.848-.604 7.5-.21 1.37.827 1.86 2.142 1.22 7.848-3.043 1.652-8.964 1.435-8.964 1.435s-.726-7.517.244-9.073zm58.891 19.445c.727.455.296 5.933.022 6.58-.833 1.969-1.477 2.521-7.38.978-2.816-1.38-1.793-8.524-1.233-8.749 2.488-.998 7.158.294 8.59 1.19zm-.507-10.684c.748.342.478 5.807.221 6.485-.781 2.063-1.415 2.702-7.422 2.045-2.885-.949-1.942-7.337-1.383-7.64 2.483-1.35 7.11-1.564 8.584-.89zM1.228 1.51c.492-.79 6.848-.604 7.5-.21 1.369.827 1.86 2.143 1.22 7.849C6.905 10.8.984 10.584.984 10.584s-.727-7.517.244-9.074zm29.704 1.684c.6.543-1.496 5.61-1.97 6.172-1.441 1.712-2.263 2.126-7.789-.264-2.44-1.744.761-8.276 1.398-8.397 2.828-.538 7.178 1.42 8.361 2.49zM19.926 69.168c-.493.79-6.848.604-7.5.21-1.37-.826-1.86-2.142-1.22-7.848 3.043-1.651 8.964-1.435 8.964-1.435s.726 7.517-.244 9.073zm-10.315-.621c-.439.785-5.974 1.162-6.634.987-2.006-.534-2.58-1.09-1.181-7.149 1.317-2.984 7.71-2.8 7.952-2.28 1.073 2.312.73 6.894-.137 8.442zm11.606.057c-.727-.455-.296-5.934-.022-6.581.833-1.969 1.478-2.52 7.38-.977 2.816 1.38 1.793 8.523 1.233 8.748-2.488.999-7.158-.294-8.59-1.19zm10.35 1.065c-.748-.342-.478-5.807-.221-6.485.78-2.063 1.415-2.701 7.422-2.044 2.885.948 1.942 7.336 1.383 7.64-2.483 1.348-7.11 1.563-8.584.889zm28.527-.559c-.492.789-6.847.603-7.499.21-1.37-.828-1.86-2.143-1.221-7.85 3.043-1.65 8.964-1.434 8.964-1.434s.727 7.517-.244 9.073zm9.954.072c-.493.79-6.848.604-7.5.21-1.37-.827-1.86-2.143-1.22-7.849 3.043-1.651 8.964-1.435 8.964-1.435s.726 7.517-.244 9.074zm-29.705-1.684c-.6-.543 1.497-5.61 1.97-6.172 1.442-1.712 2.264-2.126 7.79.264 2.44 1.744-.761 8.276-1.398 8.397-2.829.538-7.178-1.42-8.362-2.49zm29.353-9.202c-.44.785-5.975 1.162-6.635.987-2.006-.534-2.58-1.09-1.18-7.149 1.316-2.984 7.71-2.8 7.95-2.28 1.074 2.312.73 6.894-.135 8.442zM60.991 38.82c-.727-.456-.296-5.934-.022-6.582.833-1.968 1.477-2.52 7.38-.977 2.816 1.38 1.793 8.524 1.233 8.749-2.488.998-7.158-.294-8.591-1.19zm.507 10.683c-.748-.342-.479-5.807-.222-6.485.782-2.063 1.416-2.702 7.423-2.045 2.885.949 1.941 7.337 1.382 7.64-2.482 1.35-7.11 1.564-8.583.89zM1.317 58.17c-.727-.454-.296-5.933-.022-6.58.833-1.969 1.477-2.52 7.38-.978 2.816 1.38 1.793 8.524 1.233 8.75-2.488.998-7.158-.295-8.59-1.191zm8.657-47.131c.748.342.478 5.807.221 6.485-.781 2.063-1.416 2.701-7.423 2.044-2.885-.948-1.94-7.336-1.382-7.64 2.482-1.348 7.11-1.563 8.584-.889zm-8.28 9.567c.439-.785 5.974-1.163 6.634-.987 2.006.534 2.58 1.09 1.18 7.148-1.316 2.985-7.71 2.8-7.95 2.28-1.074-2.312-.73-6.894.136-8.441zm8.704 20.367c.727.455.296 5.934.022 6.581-.832 1.968-1.477 2.52-7.38.977-2.816-1.38-1.793-8.524-1.233-8.748 2.488-.999 7.158.294 8.591 1.19zm-.21-10.98c.748.342.479 5.807.222 6.485-.782 2.062-1.416 2.701-7.423 2.044-2.885-.948-1.941-7.336-1.382-7.64 2.482-1.349 7.11-1.563 8.583-.89z" id="o"></path><clipPath id="main_clip"><use xlink:href="#o" transform="translate(0 0)"></use><use xlink:href="#o" transform="translate(180 0)"></use><use xlink:href="#o" transform="translate(0 180)"></use><use xlink:href="#i" transform="translate(20 20)"></use><use xlink:href="#i" transform="translate(200 20)"></use><use xlink:href="#i" transform="translate(20 200)"></use><use xlink:href="#m" transform="translate(80 0)"></use><use xlink:href="#m" transform="translate(90 0)"></use><use xlink:href="#ms" transform="matrix(0 1 -1 0 110 0)"></use><use xlink:href="#m" transform="translate(120 0)"></use><use xlink:href="#ms" transform="matrix(0 1 -1 0 140 0)"></use><use xlink:href="#m" transform="translate(80 10)"></use><use xlink:href="#m" transform="translate(90 10)"></use><use xlink:href="#ms" transform="matrix(-1 0 0 -1 130 20)"></use><use xlink:href="#ms" transform="matrix(1 0 0 1 160 10)"></use><use xlink:href="#m" transform="translate(80 20)"></use><use xlink:href="#m" transform="translate(90 20)"></use><use xlink:href="#ms" transform="matrix(1 0 0 1 110 20)"></use><use xlink:href="#ms" transform="matrix(1 0 0 1 130 20)"></use><use xlink:href="#ms" transform="matrix(0 -1 1 0 150 30)"></use><use xlink:href="#m" transform="translate(160 20)"></use><use xlink:href="#m" transform="translate(90 30)"></use><use xlink:href="#m" transform="translate(100 30)"></use><use xlink:href="#m" transform="translate(110 30)"></use><use xlink:href="#ms" transform="matrix(-1 0 0 -1 140 40)"></use><use xlink:href="#m" transform="translate(160 30)"></use><use xlink:href="#m" transform="translate(80 40)"></use><use xlink:href="#ms" transform="matrix(-1 0 0 -1 110 50)"></use><use xlink:href="#m" transform="translate(120 40)"></use><use xlink:href="#m" transform="translate(140 40)"></use><use xlink:href="#ms" transform="matrix(-1 0 0 -1 170 50)"></use><use xlink:href="#m" transform="translate(110 50)"></use><use xlink:href="#m" transform="translate(80 60)"></use><use xlink:href="#ms" transform="matrix(1 0 0 1 100 60)"></use><use xlink:href="#m" transform="translate(120 60)"></use><use xlink:href="#m" transform="translate(140 60)"></use><use xlink:href="#ms" transform="matrix(1 0 0 1 160 60)"></use><use xlink:href="#ms" transform="matrix(1 0 0 1 0 80)"></use><use xlink:href="#m" transform="translate(30 80)"></use><use xlink:href="#m" transform="translate(40 80)"></use><use xlink:href="#m" transform="translate(50 80)"></use><use xlink:href="#m" transform="translate(60 80)"></use><use xlink:href="#ms" transform="matrix(-1 0 0 -1 10 100)"></use><use xlink:href="#m" transform="translate(20 90)"></use><use xlink:href="#m" transform="translate(30 90)"></use><use xlink:href="#m" transform="translate(40 90)"></use><use xlink:href="#m" transform="translate(50 90)"></use><use xlink:href="#m" transform="translate(10 100)"></use><use xlink:href="#m" transform="translate(20 100)"></use><use xlink:href="#m" transform="translate(30 100)"></use><use xlink:href="#m" transform="translate(40 100)"></use><use xlink:href="#m" transform="translate(60 100)"></use><use xlink:href="#m" transform="translate(10 110)"></use><use xlink:href="#m" transform="translate(20 110)"></use><use xlink:href="#m" transform="translate(30 110)"></use><use xlink:href="#m" transform="translate(40 110)"></use><use xlink:href="#m" transform="translate(10 120)"></use><use xlink:href="#m" transform="translate(50 120)"></use><use xlink:href="#m" transform="translate(60 120)"></use><use xlink:href="#m" transform="translate(0 130)"></use><use xlink:href="#m" transform="translate(10 130)"></use><use xlink:href="#m" transform="translate(20 130)"></use><use xlink:href="#ms" transform="matrix(-1 0 0 -1 60 140)"></use><use xlink:href="#m" transform="translate(0 140)"></use><use xlink:href="#m" transform="translate(10 140)"></use><use xlink:href="#m" transform="translate(20 140)"></use><use xlink:href="#m" transform="translate(30 140)"></use><use xlink:href="#ms" transform="matrix(0 1 -1 0 50 140)"></use><use xlink:href="#m" transform="translate(60 140)"></use><use xlink:href="#m" transform="translate(0 150)"></use><use xlink:href="#ms" transform="matrix(-1 0 0 -1 30 160)"></use><use xlink:href="#ms" transform="matrix(1 0 0 1 50 150)"></use><use xlink:href="#ms" transform="matrix(-1 0 0 -1 10 170)"></use><use xlink:href="#ms" transform="matrix(0 -1 1 0 30 170)"></use><use xlink:href="#m" transform="translate(40 160)"></use><use xlink:href="#m" transform="translate(50 160)"></use><use xlink:href="#m" transform="translate(60 160)"></use><use xlink:href="#ms" transform="matrix(0 -1 1 0 90 80)"></use><use xlink:href="#m" transform="translate(100 70)"></use><use xlink:href="#ms" transform="matrix(0 1 -1 0 120 70)"></use><use xlink:href="#ms" transform="matrix(1 0 0 1 130 70)"></use><use xlink:href="#ms" transform="matrix(0 -1 1 0 150 80)"></use><use xlink:href="#m" transform="translate(160 70)"></use><use xlink:href="#m" transform="translate(70 80)"></use><use xlink:href="#m" transform="translate(80 80)"></use><use xlink:href="#ms" transform="matrix(-1 0 0 -1 110 90)"></use><use xlink:href="#ms" transform="matrix(0 -1 1 0 120 90)"></use><use xlink:href="#m" transform="translate(130 80)"></use><use xlink:href="#m" transform="translate(160 80)"></use><use xlink:href="#ms" transform="matrix(0 1 -1 0 180 80)"></use><use xlink:href="#ms" transform="matrix(1 0 0 1 200 80)"></use><use xlink:href="#m" transform="translate(220 80)"></use><use xlink:href="#m" transform="translate(230 80)"></use><use xlink:href="#ms" transform="matrix(0 1 -1 0 250 80)"></use><use xlink:href="#m" transform="translate(70 90)"></use><use xlink:href="#m" transform="translate(80 90)"></use><use xlink:href="#ms" transform="matrix(1 0 0 1 110 90)"></use><use xlink:href="#m" transform="translate(140 90)"></use><use xlink:href="#m" transform="translate(150 90)"></use><use xlink:href="#m" transform="translate(160 90)"></use><use xlink:href="#ms" transform="matrix(0 -1 1 0 190 100)"></use><use xlink:href="#m" transform="translate(200 90)"></use><use xlink:href="#m" transform="translate(210 90)"></use><use xlink:href="#m" transform="translate(220 90)"></use><use xlink:href="#m" transform="translate(230 90)"></use><use xlink:href="#m" transform="translate(80 100)"></use><use xlink:href="#m" transform="translate(90 100)"></use><use xlink:href="#ms" transform="matrix(-1 0 0 -1 120 110)"></use><use xlink:href="#m" transform="translate(140 100)"></use><use xlink:href="#m" transform="translate(150 100)"></use><use xlink:href="#m" transform="translate(160 100)"></use><use xlink:href="#m" transform="translate(170 100)"></use><use xlink:href="#m" transform="translate(180 100)"></use><use xlink:href="#m" transform="translate(200 100)"></use><use xlink:href="#m" transform="translate(210 100)"></use><use xlink:href="#ms" transform="matrix(1 0 0 1 240 100)"></use><use xlink:href="#ms" transform="matrix(1 0 0 1 70 110)"></use><use xlink:href="#m" transform="translate(90 110)"></use><use xlink:href="#m" transform="translate(100 110)"></use><use xlink:href="#m" transform="translate(180 110)"></use><use xlink:href="#ms" transform="matrix(0 1 -1 0 200 110)"></use><use xlink:href="#m" transform="translate(210 110)"></use><use xlink:href="#m" transform="translate(220 110)"></use><use xlink:href="#m" transform="translate(230 110)"></use><use xlink:href="#m" transform="translate(240 110)"></use><use xlink:href="#m" transform="translate(70 120)"></use><use xlink:href="#m" transform="translate(80 120)"></use><use xlink:href="#m" transform="translate(90 120)"></use><use xlink:href="#m" transform="translate(100 120)"></use><use xlink:href="#ms" transform="matrix(0 1 -1 0 120 120)"></use><use xlink:href="#ms" transform="matrix(0 -1 1 0 130 130)"></use><use xlink:href="#m" transform="translate(140 120)"></use><use xlink:href="#m" transform="translate(150 120)"></use><use xlink:href="#m" transform="translate(160 120)"></use><use xlink:href="#ms" transform="matrix(-1 0 0 -1 190 130)"></use><use xlink:href="#ms" transform="matrix(-1 0 0 -1 250 130)"></use><use xlink:href="#ms" transform="matrix(-1 0 0 -1 90 140)"></use><use xlink:href="#m" transform="translate(100 130)"></use><use xlink:href="#m" transform="translate(120 130)"></use><use xlink:href="#m" transform="translate(140 130)"></use><use xlink:href="#m" transform="translate(150 130)"></use><use xlink:href="#m" transform="translate(160 130)"></use><use xlink:href="#ms" transform="matrix(1 0 0 1 200 130)"></use><use xlink:href="#ms" transform="matrix(1 0 0 1 230 130)"></use><use xlink:href="#ms" transform="matrix(0 -1 1 0 90 150)"></use><use xlink:href="#m" transform="translate(100 140)"></use><use xlink:href="#m" transform="translate(140 140)"></use><use xlink:href="#m" transform="translate(150 140)"></use><use xlink:href="#m" transform="translate(180 140)"></use><use xlink:href="#m" transform="translate(200 140)"></use><use xlink:href="#m" transform="translate(210 140)"></use><use xlink:href="#m" transform="translate(220 140)"></use><use xlink:href="#m" transform="translate(230 140)"></use><use xlink:href="#m" transform="translate(240 140)"></use><use xlink:href="#m" transform="translate(80 150)"></use><use xlink:href="#m" transform="translate(100 150)"></use><use xlink:href="#m" transform="translate(120 150)"></use><use xlink:href="#m" transform="translate(130 150)"></use><use xlink:href="#m" transform="translate(140 150)"></use><use xlink:href="#m" transform="translate(150 150)"></use><use xlink:href="#m" transform="translate(160 150)"></use><use xlink:href="#ms" transform="matrix(1 0 0 1 190 150)"></use><use xlink:href="#m" transform="translate(210 150)"></use><use xlink:href="#m" transform="translate(220 150)"></use><use xlink:href="#ms" transform="matrix(-1 0 0 -1 250 160)"></use><use xlink:href="#ms" transform="matrix(0 1 -1 0 80 160)"></use><use xlink:href="#m" transform="translate(100 160)"></use><use xlink:href="#m" transform="translate(110 160)"></use><use xlink:href="#m" transform="translate(120 160)"></use><use xlink:href="#m" transform="translate(150 160)"></use><use xlink:href="#m" transform="translate(160 160)"></use><use xlink:href="#m" transform="translate(170 160)"></use><use xlink:href="#m" transform="translate(180 160)"></use><use xlink:href="#m" transform="translate(190 160)"></use><use xlink:href="#m" transform="translate(200 160)"></use><use xlink:href="#m" transform="translate(220 160)"></use><use xlink:href="#m" transform="translate(230 160)"></use><use xlink:href="#ms" transform="matrix(1 0 0 1 80 170)"></use><use xlink:href="#m" transform="translate(100 170)"></use><use xlink:href="#m" transform="translate(110 170)"></use><use xlink:href="#m" transform="translate(150 170)"></use><use xlink:href="#m" transform="translate(160 170)"></use><use xlink:href="#m" transform="translate(200 170)"></use><use xlink:href="#m" transform="translate(220 170)"></use><use xlink:href="#m" transform="translate(230 170)"></use><use xlink:href="#m" transform="translate(80 180)"></use><use xlink:href="#ms" transform="matrix(0 -1 1 0 120 190)"></use><use xlink:href="#m" transform="translate(130 180)"></use><use xlink:href="#ms" transform="matrix(0 1 -1 0 150 180)"></use><use xlink:href="#m" transform="translate(160 180)"></use><use xlink:href="#m" transform="translate(180 180)"></use><use xlink:href="#m" transform="translate(200 180)"></use><use xlink:href="#m" transform="translate(240 180)"></use><use xlink:href="#m" transform="translate(80 190)"></use><use xlink:href="#m" transform="translate(100 190)"></use><use xlink:href="#m" transform="translate(110 190)"></use><use xlink:href="#m" transform="translate(130 190)"></use><use xlink:href="#m" transform="translate(150 190)"></use><use xlink:href="#m" transform="translate(160 190)"></use><use xlink:href="#m" transform="translate(200 190)"></use><use xlink:href="#m" transform="translate(230 190)"></use><use xlink:href="#m" transform="translate(80 200)"></use><use xlink:href="#m" transform="translate(100 200)"></use><use xlink:href="#m" transform="translate(110 200)"></use><use xlink:href="#m" transform="translate(130 200)"></use><use xlink:href="#m" transform="translate(150 200)"></use><use xlink:href="#m" transform="translate(160 200)"></use><use xlink:href="#m" transform="translate(170 200)"></use><use xlink:href="#m" transform="translate(180 200)"></use><use xlink:href="#m" transform="translate(190 200)"></use><use xlink:href="#m" transform="translate(200 200)"></use><use xlink:href="#ms" transform="matrix(1 0 0 1 240 200)"></use><use xlink:href="#m" transform="translate(80 210)"></use><use xlink:href="#m" transform="translate(90 210)"></use><use xlink:href="#ms" transform="matrix(0 -1 1 0 120 220)"></use><use xlink:href="#m" transform="translate(130 210)"></use><use xlink:href="#m" transform="translate(170 210)"></use><use xlink:href="#m" transform="translate(180 210)"></use><use xlink:href="#m" transform="translate(230 210)"></use><use xlink:href="#m" transform="translate(240 210)"></use><use xlink:href="#m" transform="translate(90 220)"></use><use xlink:href="#m" transform="translate(100 220)"></use><use xlink:href="#m" transform="translate(110 220)"></use><use xlink:href="#m" transform="translate(130 220)"></use><use xlink:href="#m" transform="translate(160 220)"></use><use xlink:href="#m" transform="translate(200 220)"></use><use xlink:href="#m" transform="translate(210 220)"></use><use xlink:href="#m" transform="translate(220 220)"></use><use xlink:href="#m" transform="translate(230 220)"></use><use xlink:href="#m" transform="translate(240 220)"></use><use xlink:href="#m" transform="translate(90 230)"></use><use xlink:href="#m" transform="translate(100 230)"></use><use xlink:href="#m" transform="translate(110 230)"></use><use xlink:href="#m" transform="translate(120 230)"></use><use xlink:href="#m" transform="translate(130 230)"></use><use xlink:href="#m" transform="translate(170 230)"></use><use xlink:href="#ms" transform="matrix(0 -1 1 0 190 240)"></use><use xlink:href="#m" transform="translate(200 230)"></use><use xlink:href="#m" transform="translate(220 230)"></use><use xlink:href="#m" transform="translate(230 230)"></use><use xlink:href="#m" transform="translate(240 230)"></use><use xlink:href="#m" transform="translate(80 240)"></use><use xlink:href="#m" transform="translate(100 240)"></use><use xlink:href="#m" transform="translate(110 240)"></use><use xlink:href="#m" transform="translate(120 240)"></use><use xlink:href="#m" transform="translate(130 240)"></use><use xlink:href="#ms" transform="matrix(0 -1 1 0 150 250)"></use><use xlink:href="#ms" transform="matrix(0 1 -1 0 170 240)"></use><use xlink:href="#m" transform="translate(180 240)"></use><use xlink:href="#m" transform="translate(210 240)"></use><use xlink:href="#ms" transform="matrix(-1 0 0 -1 250 250)"></use></clipPath></defs></svg>